<svg width="52" height="52" viewBox="0 0 52 52" fill="none" xmlns="http://www.w3.org/2000/svg">
<path fill-rule="evenodd" clip-rule="evenodd" d="M26 4.8678C14.0291 4.8678 4.33331 14.5636 4.33331 26.5345C4.33331 36.122 10.5354 44.2199 19.1479 47.0907C20.2312 47.2803 20.6375 46.6303 20.6375 46.0615C20.6375 45.547 20.6104 43.8407 20.6104 42.0261C15.1666 43.0282 13.7583 40.699 13.325 39.4803C13.0812 38.8574 12.025 36.9345 11.1041 36.4199C10.3458 36.0136 9.26248 35.0115 11.0771 34.9845C12.7833 34.9574 14.0021 36.5553 14.4083 37.2053C16.3583 40.4824 19.4729 39.5615 20.7187 38.9928C20.9083 37.5845 21.4771 36.6365 22.1 36.0949C17.2791 35.5532 12.2416 33.6845 12.2416 25.397C12.2416 23.0407 13.0812 21.0907 14.4625 19.574C14.2458 19.0324 13.4875 16.8115 14.6791 13.8324C14.6791 13.8324 16.4937 13.2636 20.6375 16.0532C22.3708 15.5657 24.2125 15.322 26.0541 15.322C27.8958 15.322 29.7375 15.5657 31.4708 16.0532C35.6146 13.2365 37.4291 13.8324 37.4291 13.8324C38.6208 16.8115 37.8625 19.0324 37.6458 19.574C39.0271 21.0907 39.8666 23.0136 39.8666 25.397C39.8666 33.7115 34.8021 35.5532 29.9812 36.0949C30.7666 36.772 31.4437 38.072 31.4437 40.1032C31.4437 43.0011 31.4166 45.3303 31.4166 46.0615C31.4166 46.6303 31.8229 47.3074 32.9062 47.0907C37.2075 45.6387 40.945 42.8743 43.5929 39.1868C46.2407 35.4992 47.6655 31.0742 47.6666 26.5345C47.6666 14.5636 37.9708 4.8678 26 4.8678Z" fill="#836958"/>
</svg>
