<svg width="52" height="52" viewBox="0 0 52 52" fill="none" xmlns="http://www.w3.org/2000/svg">
<path fill-rule="evenodd" clip-rule="evenodd" d="M26 6.5C20.7038 6.5 20.0408 6.5221 17.9608 6.617C15.8847 6.7119 14.4664 7.0421 13.2262 7.5244C11.9262 8.0132 10.7471 8.7802 9.7721 9.7734C8.78049 10.7473 8.01302 11.9255 7.5231 13.2262C7.0434 14.4664 6.7119 15.886 6.617 17.9621C6.5234 20.0408 6.5 20.7025 6.5 26C6.5 31.2975 6.5221 31.9592 6.617 34.0392C6.7119 36.1153 7.0421 37.5336 7.5244 38.7738C8.0132 40.0738 8.7802 41.2529 9.7734 42.2279C10.7473 43.2195 11.9256 43.9869 13.2262 44.4769C14.4664 44.9579 15.8847 45.2881 17.9608 45.383C20.0408 45.4779 20.7038 45.5 26 45.5C31.2962 45.5 31.9592 45.4779 34.0392 45.383C36.1153 45.2881 37.5336 44.9579 38.7738 44.4756C40.0738 43.9868 41.2529 43.2198 42.2279 42.2266C43.2195 41.2527 43.987 40.0745 44.4769 38.7738C44.9579 37.5336 45.2881 36.1153 45.383 34.0392C45.4779 31.9592 45.5 31.2962 45.5 26C45.5 20.7038 45.4779 20.0408 45.383 17.9608C45.2881 15.8847 44.9579 14.4664 44.4756 13.2262C43.986 11.925 43.2185 10.7462 42.2266 9.7721C41.2527 8.78049 40.0745 8.01302 38.7738 7.5231C37.5336 7.0434 36.114 6.7119 34.0379 6.617C31.9592 6.5234 31.2975 6.5 26 6.5ZM26 10.0139C31.2065 10.0139 31.824 10.0334 33.8806 10.127C35.7812 10.2141 36.8134 10.53 37.5011 10.7991C38.4111 11.1514 39.0611 11.5752 39.7436 12.2564C40.4261 12.9389 40.8486 13.5889 41.2009 14.4989C41.4687 15.1866 41.7859 16.2188 41.873 18.1194C41.9666 20.176 41.9861 20.7935 41.9861 26C41.9861 31.2065 41.9666 31.824 41.873 33.8806C41.7859 35.7812 41.47 36.8134 41.2009 37.5011C40.8888 38.3481 40.3908 39.1144 39.7436 39.7436C39.1145 40.391 38.3482 40.889 37.5011 41.2009C36.8134 41.4687 35.7812 41.7859 33.8806 41.873C31.824 41.9666 31.2078 41.9861 26 41.9861C20.7922 41.9861 20.176 41.9666 18.1194 41.873C16.2188 41.7859 15.1866 41.47 14.4989 41.2009C13.6519 40.8888 12.8856 40.3908 12.2564 39.7436C11.6092 39.1143 11.1113 38.3481 10.7991 37.5011C10.5313 36.8134 10.2141 35.7812 10.127 33.8806C10.0334 31.824 10.0139 31.2065 10.0139 26C10.0139 20.7935 10.0334 20.176 10.127 18.1194C10.2141 16.2188 10.53 15.1866 10.7991 14.4989C11.1514 13.5889 11.5752 12.9389 12.2564 12.2564C12.8855 11.6091 13.6518 11.1111 14.4989 10.7991C15.1866 10.5313 16.2188 10.2141 18.1194 10.127C20.176 10.0334 20.7935 10.0139 26 10.0139Z" fill="#836958"/>
<path fill-rule="evenodd" clip-rule="evenodd" d="M26 32.5065C25.1455 32.5065 24.2995 32.3382 23.5101 32.0113C22.7207 31.6843 22.0034 31.205 21.3992 30.6008C20.795 29.9966 20.3157 29.2794 19.9888 28.49C19.6618 27.7006 19.4935 26.8545 19.4935 26C19.4935 25.1456 19.6618 24.2995 19.9888 23.5101C20.3157 22.7207 20.795 22.0034 21.3992 21.3992C22.0034 20.7951 22.7207 20.3158 23.5101 19.9888C24.2995 19.6618 25.1455 19.4935 26 19.4935C27.7256 19.4935 29.3806 20.179 30.6008 21.3992C31.821 22.6194 32.5065 24.2744 32.5065 26C32.5065 27.7257 31.821 29.3806 30.6008 30.6008C29.3806 31.821 27.7256 32.5065 26 32.5065ZM26 15.977C23.3417 15.977 20.7923 17.033 18.9127 18.9127C17.033 20.7924 15.977 23.3418 15.977 26C15.977 28.6583 17.033 31.2077 18.9127 33.0874C20.7923 34.967 23.3417 36.023 26 36.023C28.6582 36.023 31.2076 34.967 33.0873 33.0874C34.967 31.2077 36.023 28.6583 36.023 26C36.023 23.3418 34.967 20.7924 33.0873 18.9127C31.2076 17.033 28.6582 15.977 26 15.977ZM38.9389 15.795C38.9389 16.4234 38.6893 17.026 38.2449 17.4703C37.8006 17.9147 37.198 18.1643 36.5696 18.1643C35.9413 18.1643 35.3386 17.9147 34.8943 17.4703C34.45 17.026 34.2004 16.4234 34.2004 15.795C34.2004 15.1667 34.45 14.564 34.8943 14.1197C35.3386 13.6754 35.9413 13.4258 36.5696 13.4258C37.198 13.4258 37.8006 13.6754 38.2449 14.1197C38.6893 14.564 38.9389 15.1667 38.9389 15.795Z" fill="#836958"/>
</svg>
