<svg width="52" height="52" viewBox="0 0 52 52" fill="none" xmlns="http://www.w3.org/2000/svg">
<path d="M45.5 9.36765V42.6324C45.5 43.3929 45.1979 44.1223 44.6601 44.6601C44.1223 45.1979 43.3929 45.5 42.6324 45.5H9.36765C8.6071 45.5 7.8777 45.1979 7.33991 44.6601C6.80213 44.1223 6.5 43.3929 6.5 42.6324V9.36765C6.5 8.6071 6.80213 7.8777 7.33991 7.33991C7.8777 6.80213 8.6071 6.5 9.36765 6.5H42.6324C43.3929 6.5 44.1223 6.80213 44.6601 7.33991C45.1979 7.8777 45.5 8.6071 45.5 9.36765V9.36765ZM17.9706 21.4118H12.2353V39.7647H17.9706V21.4118ZM18.4868 15.1029C18.4898 14.6691 18.4073 14.2389 18.2441 13.837C18.0809 13.435 17.8401 13.0691 17.5354 12.7603C17.2308 12.4514 16.8683 12.2055 16.4686 12.0367C16.069 11.8679 15.64 11.7795 15.2062 11.7765H15.1029C14.2207 11.7765 13.3746 12.1269 12.7508 12.7508C12.1269 13.3746 11.7765 14.2207 11.7765 15.1029C11.7765 15.9852 12.1269 16.8313 12.7508 17.4551C13.3746 18.0789 14.2207 18.4294 15.1029 18.4294V18.4294C15.5368 18.4401 15.9685 18.3652 16.3734 18.2089C16.7783 18.0527 17.1484 17.8182 17.4627 17.5189C17.7769 17.2196 18.0291 16.8613 18.2048 16.4644C18.3805 16.0676 18.4763 15.64 18.4868 15.2062V15.1029ZM39.7647 28.6153C39.7647 23.0979 36.2547 20.9529 32.7676 20.9529C31.6259 20.8958 30.4891 21.139 29.4707 21.6582C28.4523 22.1775 27.5878 22.9547 26.9635 23.9124H26.8029V21.4118H21.4118V39.7647H27.1471V30.0032C27.0642 29.0035 27.3791 28.0114 28.0234 27.2425C28.6677 26.4736 29.5894 25.99 30.5882 25.8968H30.8062C32.63 25.8968 33.9835 27.0438 33.9835 29.9344V39.7647H39.7188L39.7647 28.6153Z" fill="#836958"/>
</svg>
